<svg width="207" height="43" viewBox="0 0 207 43" fill="none" xmlns="http://www.w3.org/2000/svg">
<path d="M76.5224 8.6H80.6504C81.6104 8.6 82.549 8.70667 83.4664 8.92C84.3837 9.13333 85.1944 9.47467 85.8984 9.944C86.6237 10.4133 87.1997 11.032 87.6264 11.8C88.053 12.568 88.2664 13.5173 88.2664 14.648C88.2664 15.544 88.0744 16.44 87.6904 17.336C87.3277 18.2107 86.7624 18.968 85.9944 19.608C85.2264 20.2267 84.2344 20.6 83.0184 20.728C83.701 20.9413 84.3197 21.3253 84.8744 21.88C85.4504 22.4347 85.9197 22.9893 86.2824 23.544C86.3037 23.5867 86.421 23.7787 86.6344 24.12C86.869 24.4613 87.1464 24.888 87.4664 25.4C87.8077 25.8907 88.1597 26.392 88.5224 26.904C88.885 27.416 89.2157 27.864 89.5144 28.248C89.9837 28.824 90.4104 29.2933 90.7944 29.656C91.1784 29.9973 91.5837 30.2533 92.0104 30.424C92.437 30.5733 92.9277 30.6587 93.4824 30.68V31H90.3464C89.1944 31 88.149 30.904 87.2104 30.712C86.2717 30.4987 85.4397 30.1467 84.7144 29.656C83.989 29.1653 83.3597 28.504 82.8264 27.672C82.6557 27.416 82.4637 27.096 82.2504 26.712C82.0584 26.3067 81.8557 25.88 81.6424 25.432C81.429 24.984 81.2157 24.5573 81.0024 24.152C80.8104 23.7253 80.6397 23.3413 80.4904 23C80.341 22.6587 80.2344 22.392 80.1704 22.2C79.893 21.5173 79.5624 21.0053 79.1784 20.664C78.8157 20.3227 78.421 20.12 77.9944 20.056V19.736C78.0584 19.736 78.1864 19.736 78.3784 19.736C78.5704 19.736 78.773 19.736 78.9864 19.736C79.5624 19.736 80.117 19.6187 80.6504 19.384C81.205 19.1493 81.6957 18.7653 82.1224 18.232C82.549 17.6987 82.8477 16.9627 83.0184 16.024C83.061 15.832 83.093 15.608 83.1144 15.352C83.157 15.096 83.1677 14.808 83.1464 14.488C83.0824 12.952 82.6984 11.832 81.9944 11.128C81.2904 10.4027 80.4157 10.0293 79.3704 10.008C79.0717 9.98667 78.741 9.98667 78.3784 10.008C78.037 10.008 77.717 10.008 77.4184 10.008C77.141 10.008 76.949 10.008 76.8424 10.008C76.8424 9.98667 76.8104 9.86933 76.7464 9.656C76.7037 9.42133 76.6504 9.18667 76.5864 8.952C76.5437 8.71733 76.5224 8.6 76.5224 8.6ZM76.9384 8.6V31H72.1384V8.6H76.9384ZM72.2344 28.664V31H69.6744V30.68C69.6957 30.68 69.7597 30.68 69.8664 30.68C69.9944 30.68 70.069 30.68 70.0904 30.68C70.645 30.68 71.1144 30.488 71.4984 30.104C71.9037 29.6987 72.117 29.2187 72.1384 28.664H72.2344ZM72.2344 10.936H72.1384C72.117 10.3813 71.9037 9.912 71.4984 9.528C71.1144 9.12267 70.645 8.92 70.0904 8.92C70.069 8.92 69.9944 8.92 69.8664 8.92C69.7597 8.92 69.6957 8.92 69.6744 8.92V8.6H72.2344V10.936ZM76.8424 28.664H76.9384C76.9384 29.2187 77.141 29.6987 77.5464 30.104C77.9517 30.488 78.4317 30.68 78.9864 30.68C79.029 30.68 79.1037 30.68 79.2104 30.68C79.317 30.68 79.3704 30.68 79.3704 30.68V31H76.8424V28.664ZM99.6056 11.8V31H94.9976V11.8H99.6056ZM107.094 29.72L107.83 31H99.5416V29.72H107.094ZM106.006 20.856V22.136H99.5416V20.856H106.006ZM107.446 11.8V13.08H99.5416V11.8H107.446ZM109.142 25.112L107.926 31H102.39L103.382 29.72C104.299 29.72 105.11 29.5387 105.814 29.176C106.539 28.792 107.158 28.2587 107.67 27.576C108.182 26.872 108.576 26.0507 108.854 25.112H109.142ZM106.006 22.072V24.888H105.686V24.632C105.686 23.928 105.462 23.3413 105.014 22.872C104.587 22.4027 104 22.1573 103.254 22.136V22.072H106.006ZM106.006 18.104V20.92H103.254V20.856C104 20.8347 104.587 20.5893 105.014 20.12C105.462 19.6293 105.686 19.032 105.686 18.328V18.104H106.006ZM107.446 13.016V16.408H107.126V16.12C107.126 15.1813 106.87 14.4453 106.358 13.912C105.867 13.3787 105.152 13.1013 104.214 13.08V13.016H107.446ZM107.446 11.32V12.088L104.086 11.8C104.704 11.8 105.355 11.7467 106.038 11.64C106.72 11.512 107.19 11.4053 107.446 11.32ZM95.0616 28.984L95.2216 31H92.8536V30.68C92.8536 30.68 92.9176 30.68 93.0456 30.68C93.1736 30.68 93.2483 30.68 93.2696 30.68C93.739 30.68 94.1336 30.52 94.4536 30.2C94.795 29.8587 94.9763 29.4533 94.9976 28.984H95.0616ZM95.0616 13.816H94.9976C94.9763 13.3253 94.795 12.92 94.4536 12.6C94.1336 12.28 93.739 12.12 93.2696 12.12C93.2483 12.12 93.1736 12.12 93.0456 12.12C92.9176 12.12 92.8536 12.12 92.8536 12.12V11.8H95.2216L95.0616 13.816ZM120.036 10.936L129.508 30.84H124.1L118.148 16.792L120.036 10.936ZM114.02 28.888C113.785 29.464 113.817 29.912 114.116 30.232C114.415 30.5307 114.745 30.68 115.108 30.68H115.364V31H108.964V30.68C108.964 30.68 109.007 30.68 109.092 30.68C109.177 30.68 109.22 30.68 109.22 30.68C109.647 30.68 110.095 30.552 110.564 30.296C111.033 30.0187 111.417 29.5493 111.716 28.888H114.02ZM120.036 10.936L120.1 14.776L113.156 30.904H110.788L118.276 14.808C118.319 14.68 118.415 14.456 118.564 14.136C118.713 13.7947 118.873 13.4213 119.044 13.016C119.215 12.5893 119.375 12.1947 119.524 11.832C119.673 11.448 119.759 11.1493 119.78 10.936H120.036ZM122.82 24.728V25.976H114.66V24.728H122.82ZM123.3 28.888H128.58C128.9 29.5493 129.295 30.0187 129.764 30.296C130.233 30.552 130.681 30.68 131.108 30.68C131.108 30.68 131.151 30.68 131.236 30.68C131.321 30.68 131.364 30.68 131.364 30.68V31H121.956V30.68H122.212C122.575 30.68 122.905 30.5307 123.204 30.232C123.503 29.912 123.535 29.464 123.3 28.888ZM138.262 11.8V31H133.654V11.8H138.262ZM145.718 29.72L146.486 31H138.198V29.72H145.718ZM147.83 25.112L146.582 31H141.046L142.038 29.72C142.955 29.72 143.766 29.5387 144.47 29.176C145.195 28.792 145.814 28.2587 146.326 27.576C146.838 26.872 147.233 26.0507 147.51 25.112H147.83ZM133.718 28.984L133.878 31H131.51V30.68C131.51 30.68 131.574 30.68 131.702 30.68C131.83 30.68 131.905 30.68 131.926 30.68C132.395 30.68 132.79 30.52 133.11 30.2C133.451 29.8587 133.633 29.4533 133.654 28.984H133.718ZM138.198 13.816V11.8H140.406V12.12C140.385 12.12 140.31 12.12 140.182 12.12C140.075 12.12 140.022 12.12 140.022 12.12C139.553 12.12 139.147 12.28 138.806 12.6C138.465 12.92 138.283 13.3253 138.262 13.816H138.198ZM133.718 13.816H133.654C133.633 13.3253 133.451 12.92 133.11 12.6C132.769 12.28 132.363 12.12 131.894 12.12C131.873 12.12 131.798 12.12 131.67 12.12C131.563 12.12 131.51 12.12 131.51 12.12V11.8H133.718V13.816ZM155.512 11.8V31H150.904V11.8H155.512ZM163 29.72L163.736 31H155.448V29.72H163ZM161.912 20.856V22.136H155.448V20.856H161.912ZM163.352 11.8V13.08H155.448V11.8H163.352ZM165.048 25.112L163.832 31H158.296L159.288 29.72C160.205 29.72 161.016 29.5387 161.72 29.176C162.445 28.792 163.064 28.2587 163.576 27.576C164.088 26.872 164.483 26.0507 164.76 25.112H165.048ZM161.912 22.072V24.888H161.592V24.632C161.592 23.928 161.368 23.3413 160.92 22.872C160.493 22.4027 159.907 22.1573 159.16 22.136V22.072H161.912ZM161.912 18.104V20.92H159.16V20.856C159.907 20.8347 160.493 20.5893 160.92 20.12C161.368 19.6293 161.592 19.032 161.592 18.328V18.104H161.912ZM163.352 13.016V16.408H163.032V16.12C163.032 15.1813 162.776 14.4453 162.264 13.912C161.773 13.3787 161.059 13.1013 160.12 13.08V13.016H163.352ZM163.352 11.32V12.088L159.992 11.8C160.611 11.8 161.261 11.7467 161.944 11.64C162.627 11.512 163.096 11.4053 163.352 11.32ZM150.968 28.984L151.128 31H148.76V30.68C148.76 30.68 148.824 30.68 148.952 30.68C149.08 30.68 149.155 30.68 149.176 30.68C149.645 30.68 150.04 30.52 150.36 30.2C150.701 29.8587 150.883 29.4533 150.904 28.984H150.968ZM150.968 13.816H150.904C150.883 13.3253 150.701 12.92 150.36 12.6C150.04 12.28 149.645 12.12 149.176 12.12C149.155 12.12 149.08 12.12 148.952 12.12C148.824 12.12 148.76 12.12 148.76 12.12V11.8H151.128L150.968 13.816ZM183.494 11.384C183.494 11.384 183.494 11.4267 183.494 11.512C183.494 11.5973 183.494 11.64 183.494 11.64L172.358 31H166.854V30.744L177.382 13.048H167.302V11.768H180.23C180.636 11.768 181.062 11.7573 181.51 11.736C181.98 11.6933 182.396 11.64 182.758 11.576C183.121 11.512 183.366 11.448 183.494 11.384ZM183.174 29.752L182.95 31H168.966V29.752H183.174ZM184.678 25.112L183.302 31H177.51L178.598 29.752C179.601 29.7307 180.476 29.5387 181.222 29.176C181.969 28.8133 182.598 28.2907 183.11 27.608C183.644 26.904 184.06 26.072 184.358 25.112H184.678ZM167.302 12.952H170.598V13.048C169.66 13.048 168.924 13.3253 168.39 13.88C167.878 14.4133 167.622 15.1493 167.622 16.088V16.344H167.302V12.952ZM167.302 11.288C167.473 11.352 167.75 11.4267 168.134 11.512C168.54 11.576 168.977 11.64 169.446 11.704C169.937 11.7467 170.385 11.768 170.79 11.768L167.302 12.088V11.288ZM195.38 10.936L204.852 30.84H199.444L193.492 16.792L195.38 10.936ZM189.364 28.888C189.129 29.464 189.161 29.912 189.46 30.232C189.759 30.5307 190.089 30.68 190.452 30.68H190.708V31H184.308V30.68C184.308 30.68 184.351 30.68 184.436 30.68C184.521 30.68 184.564 30.68 184.564 30.68C184.991 30.68 185.439 30.552 185.908 30.296C186.377 30.0187 186.761 29.5493 187.06 28.888H189.364ZM195.38 10.936L195.444 14.776L188.5 30.904H186.132L193.62 14.808C193.663 14.68 193.759 14.456 193.908 14.136C194.057 13.7947 194.217 13.4213 194.388 13.016C194.559 12.5893 194.719 12.1947 194.868 11.832C195.017 11.448 195.103 11.1493 195.124 10.936H195.38ZM198.164 24.728V25.976H190.004V24.728H198.164ZM198.644 28.888H203.924C204.244 29.5493 204.639 30.0187 205.108 30.296C205.577 30.552 206.025 30.68 206.452 30.68C206.452 30.68 206.495 30.68 206.58 30.68C206.665 30.68 206.708 30.68 206.708 30.68V31H197.3V30.68H197.556C197.919 30.68 198.249 30.5307 198.548 30.232C198.847 29.912 198.879 29.464 198.644 28.888Z" fill="#FA8C05"/>
<path d="M23 12L30.5 25L38 18.25L36.25 27H9.75L8 18.25L15.5 25L23 12ZM23 2L14.25 17L0.5 4.5L5.5 32H40.5L45.5 4.5L31.75 17L23 2ZM40.5 37H5.5V39.5C5.5 41 6.5 42 8 42H38C39.5 42 40.5 41 40.5 39.5V37Z" fill="white"/>
</svg>
